<?xml version="1.0" encoding="UTF-8"?><svg id="a" xmlns="http://www.w3.org/2000/svg" width="248" height="50" viewBox="0 0 248 50"><g id="b"><g><path d="M72.6672,25.9859c-1.3421,0-2.5486-.2277-3.6241-.688s-1.9235-1.1194-2.5486-1.9816-.9448-1.8846-.964-3.0571h4.1328c.0531,.7898,.3344,1.4149,.8381,1.8749s1.1966,.688,2.0784,.688,1.6086-.2131,2.1222-.6493c.5134-.4312,.7702-.9979,.7702-1.6958,0-.5715-.1746-1.0368-.5234-1.4051s-.785-.659-1.3082-.8672-1.2453-.4456-2.161-.7024c-1.2501-.3683-2.2627-.7317-3.0429-1.0902s-1.4488-.9011-2.0106-1.628c-.5621-.7269-.8381-1.6958-.8381-2.907,0-1.1386,.2858-2.132,.8528-2.9749,.5715-.843,1.3662-1.4922,2.3982-1.9427,1.027-.4506,2.2045-.6734,3.5272-.6734,1.9816,0,3.5952,.4845,4.8355,1.4488s1.9235,2.311,2.0542,4.0358h-4.2443c-.0389-.659-.3149-1.2064-.8381-1.6378s-1.2162-.6493-2.0784-.6493c-.751,0-1.3565,.1938-1.8024,.5765-.4506,.3875-.6734,.9448-.6734,1.6811,0,.5134,.1696,.9398,.5086,1.2792s.7608,.6154,1.2694,.8286,1.2162,.4554,2.1365,.7317c1.2501,.3683,2.2674,.7363,3.0571,1.0997,.7898,.3683,1.468,.9206,2.0397,1.652,.5715,.7363,.8528,1.7006,.8528,2.8925,0,1.027-.2666,1.9816-.7994,2.8683-.5331,.8818-1.3131,1.5842-2.3402,2.1075s-2.2482,.785-3.663,.785h-.0141v.0003Zm9.1475-7.8829c0-1.5408,.3053-2.912,.9206-4.1037s1.4488-2.1123,2.5048-2.7568c1.0563-.6443,2.2384-.964,3.5416-.964,1.1386,0,2.1365,.2277,2.9893,.688,.8528,.4603,1.536,1.0368,2.0542,1.7346v-2.1754h3.8857v15.2617h-3.8857v-2.2334c-.4942,.7171-1.1822,1.3082-2.0542,1.7781-.872,.4701-1.8798,.7024-3.0184,.7024-1.284,0-2.4565-.3294-3.5126-.9934s-1.8896-1.5941-2.5048-2.7955-.9206-2.5874-.9206-4.1475h0v.005h.0002Zm12.0156,.0531c0-.935-.184-1.7395-.5523-2.4128-.3683-.6685-.8626-1.1872-1.4874-1.5408-.6251-.3586-1.2936-.5376-2.0106-.5376s-1.376,.1746-1.9816,.5234-1.0997,.8576-1.473,1.531c-.3778,.6685-.567,1.4632-.567,2.3838s.189,1.72,.567,2.4128c.3778,.688,.872,1.2162,1.4874,1.5842s1.2742,.5523,1.9718,.5523,1.3856-.1792,2.0106-.5376,1.1194-.872,1.4874-1.5408c.3683-.6685,.5523-1.473,.5523-2.4128h0l-.005-.005h.0003v-.0002Zm11.5165-5.4312c.4942-.6978,1.1822-1.2792,2.0542-1.749s1.8702-.7024,2.9893-.7024c1.3034,0,2.4856,.3197,3.5416,.964s1.8896,1.5552,2.5048,2.7424,.9206,2.5581,.9206,4.1184-.3053,2.9459-.9206,4.1475-1.4488,2.1365-2.5048,2.7955-2.2384,.9934-3.5416,.9934c-1.1194,0-2.1075-.2277-2.9603-.688-.8528-.4603-1.5458-1.0368-2.0784-1.7346v5.6299h-3.8568V10.5255h3.8568v2.2045h0l-.005-.005h.0002Zm8.0718,5.3731c0-.9206-.189-1.715-.567-2.3838-.3778-.6685-.872-1.1822-1.4874-1.531s-1.2792-.5234-1.9963-.5234-1.3565,.1792-1.9718,.5376-1.1096,.877-1.4874,1.5552-.567,1.4779-.567,2.3982,.189,1.72,.567,2.3982,.872,1.1966,1.4874,1.5552c.6154,.3586,1.2742,.5376,1.9718,.5376s1.381-.184,1.9963-.5523,1.1096-.8915,1.4874-1.5699,.567-1.4874,.567-2.4226h0v.001Zm8.7065-9.3947c-.6782,0-1.2453-.2131-1.6958-.6493-.4506-.4312-.6734-.969-.6734-1.6133s.2229-1.1822,.6734-1.6133,1.0176-.6493,1.6958-.6493,1.2453,.2131,1.6958,.6493c.4506,.4312,.6734,.969,.6734,1.6133s-.2229,1.1822-.6734,1.6133-1.0126,.6493-1.6958,.6493Zm1.8994,1.8168v15.2617h-3.8568V10.5207h3.8568v-.0005Zm17.9942,7.3016c0,.5523-.0389,1.0466-.1115,1.4874h-11.1579c.092,1.1046,.4795,1.9672,1.1578,2.592,.6782,.6251,1.5163,.935,2.5048,.935,1.4341,0,2.4517-.6154,3.0571-1.8459h4.1617c-.4408,1.468-1.284,2.6794-2.5339,3.6241-1.2501,.9448-2.7811,1.4195-4.6029,1.4195-1.468,0-2.7857-.3246-3.9536-.9787s-2.0736-1.5747-2.7277-2.7713c-.6541-1.1918-.9787-2.5726-.9787-4.1328s.3197-2.9651,.964-4.1617c.6443-1.1918,1.5458-2.1123,2.6987-2.7568,1.1578-.6443,2.4906-.964,3.9971-.964s2.7518,.3149,3.9001,.935c1.1483,.6251,2.0397,1.5118,2.6746,2.6598,.6349,1.1483,.9496,2.4661,.9496,3.9536h0v.005h.0006v-.0002Zm-3.9971-1.1046c-.0192-.9934-.3778-1.7878-1.0757-2.3838s-1.5502-.8962-2.5629-.8962c-.9546,0-1.7587,.2907-2.4128,.8672s-1.0515,1.381-1.1966,2.4128c0,0,7.248,0,7.248,0Zm15.2617-6.4197c1.8168,0,3.2897,.5715,4.4091,1.72s1.6811,2.7518,1.6811,4.8061v8.9536h-3.8568v-8.4302c0-1.2114-.3053-2.1464-.9109-2.7955-.6054-.6541-1.4341-.9787-2.4806-.9787s-1.9042,.3246-2.5195,.9787-.9254,1.5842-.9254,2.7955v8.4302h-3.8568V10.5158h3.8568v1.8994c.5134-.6638,1.1725-1.1822,1.9718-1.5552,.7994-.3778,1.6765-.567,2.6307-.567h0v.005l.0006-.0003h-.0002Zm15.7318-.029c1.1386,0,2.1414,.2229,3.004,.6734s1.5458,1.0318,2.0397,1.749v-2.1754h3.8857v15.3732c0,1.4149-.2858,2.6746-.8528,3.7889-.5715,1.1096-1.4243,1.9914-2.5629,2.6454s-2.5146,.9787-4.1328,.9787c-2.1659,0-3.9438-.504-5.3294-1.5163s-2.1704-2.3886-2.3547-4.1328h3.8275c.2035,.6978,.6395,1.2547,1.3081,1.6667,.6685,.4117,1.4824,.6202,2.437,.6202,1.1194,0,2.0302-.3344,2.7277-1.0077,.6978-.6685,1.0466-1.6861,1.0466-3.0429v-2.3691c-.4942,.7171-1.1822,1.3131-2.0542,1.7926s-1.8702,.7171-2.9893,.7171c-1.284,0-2.4611-.3294-3.5272-.9934-1.0658-.659-1.9042-1.5941-2.5195-2.7955-.6154-1.2016-.9206-2.5874-.9206-4.1475s.3053-2.912,.9206-4.1037,1.4488-2.1123,2.5048-2.7568c1.0563-.6443,2.2384-.964,3.5416-.964h0l.0003-.0003h-.0002Zm5.0437,7.8779c0-.935-.184-1.7395-.5523-2.4128-.3683-.6685-.8626-1.1872-1.4874-1.5408-.6251-.3586-1.2936-.5376-2.0106-.5376s-1.376,.1746-1.9816,.5234-1.0997,.8576-1.473,1.531c-.3778,.6685-.567,1.4632-.567,2.3838s.189,1.72,.567,2.4128c.3778,.688,.872,1.2162,1.4874,1.5842s1.2742,.5523,1.9718,.5523,1.3856-.1792,2.0106-.5376,1.1194-.872,1.4874-1.5408,.5523-1.473,.5523-2.4128h0l-.005-.005h.0003v-.0002Zm11.5164-5.2616c.4942-.8091,1.1435-1.4438,1.9427-1.8994,.7994-.4603,1.715-.688,2.7424-.688v4.0505h-1.0174c-1.2114,0-2.127,.2858-2.7424,.8528-.6152,.5715-.9254,1.56-.9254,2.9749v7.6065h-3.8568V10.5207h3.8568v2.3691h0v-.005h.0002Zm6.284,5.2083c0-1.5408,.3053-2.912,.9206-4.1037s1.4488-2.1123,2.5048-2.7568c1.0563-.6443,2.2384-.964,3.5416-.964,1.1386,0,2.1365,.2277,2.9893,.688,.8528,.4603,1.536,1.0368,2.0542,1.7346v-2.1754h3.8858v15.2617h-3.8857v-2.2334c-.4942,.7171-1.1822,1.3082-2.0542,1.7781-.872,.4701-1.8798,.7024-3.0184,.7024-1.284,0-2.4565-.3294-3.5126-.9934s-1.8896-1.5941-2.5048-2.7955c-.6152-1.2016-.9206-2.5874-.9206-4.1475h0v.005h.0001Zm12.0156,.0531c0-.935-.184-1.7395-.5523-2.4128-.3683-.6685-.8626-1.1872-1.4874-1.5408-.6251-.3586-1.2936-.5376-2.0106-.5376s-1.376,.1746-1.9816,.5234-1.0997,.8576-1.473,1.531c-.3778,.6685-.567,1.4632-.567,2.3838s.189,1.72,.567,2.4128c.3778,.688,.872,1.2162,1.4874,1.5842s1.2742,.5523,1.9718,.5523,1.3856-.1792,2.0106-.5376,1.1194-.872,1.4874-1.5408,.5523-1.473,.5523-2.4128h0l-.005-.005h.0003v-.0002Zm11.5164-5.4312c.4942-.6978,1.1822-1.2792,2.0542-1.749s1.8702-.7024,2.9893-.7024c1.3034,0,2.4856,.3197,3.5416,.964s1.8896,1.5552,2.5048,2.7424c.6152,1.1872,.9206,2.5581,.9206,4.1184s-.3053,2.9459-.9206,4.1475-1.4488,2.1365-2.5048,2.7955c-1.0563,.659-2.2384,.9934-3.5416,.9934-1.1194,0-2.1075-.2277-2.9603-.688s-1.5457-1.0368-2.0784-1.7346v5.6299h-3.8568V10.5255h3.8568v2.2045h0l-.005-.0147v-.0002Zm8.072,5.3731c0-.9206-.189-1.715-.567-2.3838s-.872-1.1822-1.4873-1.531c-.6152-.3488-1.2792-.5234-1.9962-.5234s-1.3565,.1792-1.9718,.5376c-.6152,.3586-1.1096,.877-1.4873,1.5552s-.567,1.4779-.567,2.3982,.189,1.72,.567,2.3982,.872,1.1966,1.4873,1.5552c.6152,.3586,1.2742,.5376,1.9718,.5376s1.381-.184,1.9962-.5523,1.1096-.8915,1.4873-1.5699,.567-1.4874,.567-2.4226h0v.001Zm15.3443-7.7958c1.1579,0,2.1851,.2518,3.0862,.7558,.9011,.504,1.6038,1.2501,2.1075,2.2334,.504,.9835,.7558,2.161,.7558,3.5416v8.9536h-3.8568v-8.4302c0-1.2114-.3053-2.1464-.9109-2.7955-.6054-.6541-1.4341-.9787-2.4806-.9787s-1.9041,.3246-2.5195,.9787c-.6152,.6541-.9254,1.5842-.9254,2.7955v8.4302h-3.8568V5.4043h3.8568v7.0253c.4942-.6638,1.1579-1.1822,1.9816-1.5552,.8286-.3778,1.744-.567,2.7568-.567h0l.005-.0147h.0005v-.0002Z" fill-rule="evenodd"/><g><path d="M70.0413,39.3486c.751,.3246,1.2162,1.0902,1.2162,1.9816,0,1.2645-1.0658,2.2384-2.4661,2.2384h-3.2558v-8.1397h3.2171c1.3323,0,2.2965,.8915,2.2965,2.0784,0,.7317-.3925,1.4779-1.0029,1.841h-.005s0,.0003,0,.0003Zm-1.3131-2.9166h-2.1851v2.437h2.1901c.7219,0,1.2694-.5426,1.2694-1.2211s-.5573-1.2162-1.2742-1.2162v.0003h-.0002Zm.0531,6.1339c.8139,0,1.4243-.567,1.4243-1.347s-.6104-1.347-1.4195-1.347h-2.2432v2.6938h2.2384v.0003Z" fill="#939598"/><path d="M78.5587,37.2942l-2.9942,6.5408c-.6782,1.4874-1.2742,1.9816-2.4611,1.9816h-.5912v-.8915h.5086c.8381,0,1.1386-.2568,1.6426-1.3082l.2277-.4701-2.7955-5.8526h1.0757l2.2334,4.7529,2.1026-4.7529h1.0515v0Z" fill="#939598"/><path d="M89.0821,35.4338v8.1397h-.8626l-4.6318-6.3518v6.3518h-.9979v-8.1397h.9254l4.5689,6.279v-6.279h.9979Z" fill="#939598"/><path d="M91.0203,40.9233v-3.6291h.9885v3.4689c0,1.2355,.688,1.9914,1.7976,1.9914s1.7976-.7654,1.7976-1.9914v-3.4689h.9885v3.6291c0,1.6861-1.0854,2.7858-2.7858,2.7858s-2.7858-1.0997-2.7858-2.7858h-.0006Z" fill="#939598"/><path d="M105.0273,40.4339c0,1.8702-1.347,3.275-3.2366,3.275-.9835,0-1.8315-.3875-2.4128-1.0318l-.1357,.8915h-.7654v-8.5224h.9885v3.0379c.5814-.5862,1.3904-.935,2.3258-.935,1.8944,0,3.2366,1.3954,3.2366,3.275v.0098l-.0003-.0003v.0003Zm-1.0077,0c0-1.3373-.969-2.3208-2.3013-2.3208s-2.316,.9979-2.316,2.3208,.9835,2.3208,2.316,2.3208,2.3013-.9835,2.3013-2.3208Z" fill="#939598"/><path d="M112.3722,40.8166h-5.3539c.155,1.1627,1.0224,1.9283,2.2093,1.9283,.8672,0,1.5699-.4069,1.9574-1.0854h1.0418c-.5331,1.2936-1.6378,2.0494-2.999,2.0494-1.8218,0-3.2027-1.4051-3.2027-3.28s1.381-3.275,3.2027-3.275,3.1638,1.468,3.1638,3.3045c0,.1211-.0098,.2374-.0192,.3586h0v-.0003h-.0002Zm-5.3294-.9157h4.3605c-.2131-1.1194-1.061-1.812-2.1753-1.812s-1.9816,.7171-2.1851,1.812Z" fill="#939598"/><path d="M113.8693,35.051h.9885v8.5224h-.9885v-8.5224Z" fill="#939598"/><path d="M122.9875,37.2942v6.279h-.8189l-.1067-.9496c-.5814,.6782-1.4438,1.0902-2.4661,1.0902-1.8557,0-3.251-1.4051-3.251-3.275s1.3954-3.275,3.251-3.275c1.027,0,1.8994,.4166,2.4758,1.0997l.1211-.964h.785l.0098-.005v-.0003Zm-1.0077,3.1397c0-1.3373-.969-2.3208-2.3013-2.3208s-2.316,.9979-2.316,2.3208,.9835,2.3208,2.316,2.3208,2.3013-.9835,2.3013-2.3208Z" fill="#939598"/></g></g></g><path d="M42.7105,1.0001H11.7751C7.0609,1.0001,3.243,4.823,3.243,9.5322v30.9356c0,4.7141,3.8229,8.5321,8.5321,8.5321h30.9354c4.7141,0,8.5321-3.8229,8.5321-8.5321V9.537c0-4.7141-3.8229-8.5321-8.5321-8.5321v-.0048Zm-.4845,19.7726l-.0242-.0192c-.8962-.751-1.8218-1.284-2.815-1.6328-.9885-.3488-2.0445-.504-3.2027-.504h-.0147v-2.5195c-2.6213,0-15.2425,.005-15.2571,0-.3438-.2955-.7413-.5331-1.1774-.693-.4166-.155-.872-.2374-1.347-.2374-1.0707,0-2.0397,.4362-2.7424,1.1338s-1.1338,1.6717-1.1338,2.7424,.4362,2.0397,1.1338,2.7424c.7024,.7024,1.6717,1.1338,2.7424,1.1338,.4603,0,.9059-.0822,1.3179-.2277,.4264-.155,.8189-.3827,1.1578-.6638,.0098-.0098,14.0748,0,15.3974,0,1.5989,0,2.9942,.5814,4.1814,1.7395,.5912,.5765,1.0368,1.2162,1.3323,1.9138,.2955,.6978,.4456,1.4534,.4456,2.2674v5.9835c0,.8286-.1501,1.5941-.4456,2.2965s-.7413,1.347-1.3323,1.9235-1.2355,1.0126-1.9333,1.3034-1.4438,.4362-2.2432,.4362H18.3935c-1.628,0-3.0184-.5765-4.1814-1.7346-1.1578-1.1578-1.7395-2.5678-1.7395-4.2198v-4.6368l.0242,.0192c.8672,.7219,1.7829,1.2453,2.7568,1.5842s2.0155,.4992,3.1349,.4992h.0147v2.5195c2.6406,0,15.2617-.0098,15.2812,0,.3438,.2907,.7363,.5234,1.1677,.6782,.4117,.1501,.8626,.2326,1.3323,.2326,1.0707,0,2.0397-.4362,2.7424-1.1338,.7024-.7024,1.1338-1.6717,1.1338-2.7424s-.4362-2.0397-1.1338-2.7424-1.6717-1.1338-2.7424-1.1338c-.4653,0-.9157,.0822-1.3275,.2326-.4312,.155-.8286,.3875-1.1677,.6782-.0147,.0098-13.9731,0-15.2907,0-1.628,0-3.0184-.5814-4.1814-1.7395-.5765-.5765-1.0126-1.2162-1.3034-1.9138s-.4362-1.4534-.4362-2.2674v-5.9835c0-1.657,.5814-3.0621,1.7395-4.2198,.5765-.5765,1.2162-1.0126,1.9138-1.3034,.6978-.2907,1.4534-.4362,2.2674-.4362h17.8732c1.5989,0,2.9942,.5814,4.1814,1.7395,.5912,.5765,1.0368,1.2211,1.3323,1.9235s.4456,1.468,.4456,2.2965v4.6899l-.005-.005,.0003,.0006v-.0005Zm-22.0738-1.7346c0,.4845-.1987,.9256-.5134,1.2453-.3197,.3197-.7608,.5134-1.2453,.5134s-.9256-.1987-1.2453-.5134c-.3197-.3197-.5134-.7608-.5134-1.2453s.1987-.9256,.5134-1.2453c.3197-.3197,.7608-.5134,1.2453-.5134s.9256,.1987,1.2453,.5134c.3197,.3197,.5134,.7608,.5134,1.2453Zm14.2736,11.9089c0-.4845,.1987-.9256,.5134-1.2453,.3197-.3197,.7608-.5134,1.2453-.5134s.9256,.1987,1.2453,.5134c.3197,.3197,.5134,.7608,.5134,1.2453s-.1987,.9256-.5134,1.2453c-.3197,.3197-.7608,.5134-1.2453,.5134s-.9256-.1987-1.2453-.5134c-.3197-.3197-.5134-.7608-.5134-1.2453Z" fill="#00bd94"/></svg>